<?xml version="1.0" encoding="UTF-8" standalone="no"?>
<svg width="80" height="80" viewBox="0 0 80 80" fill="none" version="1.1" id="svg3" sodipodi:docname="Ohr ohne_Schatten_neu.svg" inkscape:version="1.4 (86a8ad7, 2024-10-11)" inkscape:export-filename="Ohr ohne_Schatten.png" inkscape:export-xdpi="96" inkscape:export-ydpi="96" xmlns:inkscape="http://www.inkscape.org/namespaces/inkscape" xmlns:sodipodi="http://sodipodi.sourceforge.net/DTD/sodipodi-0.dtd" xmlns="http://www.w3.org/2000/svg" xmlns:svg="http://www.w3.org/2000/svg">
  <sodipodi:namedview id="namedview3" pagecolor="#505050" bordercolor="#eeeeee" borderopacity="1" inkscape:showpageshadow="0" inkscape:pageopacity="0" inkscape:pagecheckerboard="0" inkscape:deskcolor="#505050" inkscape:zoom="8.0229423" inkscape:cx="20.129772" inkscape:cy="43.562572" inkscape:window-width="1920" inkscape:window-height="1129" inkscape:window-x="1912" inkscape:window-y="-8" inkscape:window-maximized="1" inkscape:current-layer="svg3"/>
  <rect width="80" height="80" rx="40" fill="#0050E5" id="rect1" style="" x="0" y="0"/>
  <path d="m 27.868615,24.651897 c 0.642564,-0.805026 0.652,-1.97959 -0.07528,-2.709026 -0.730359,-0.732513 -1.924205,-0.737436 -2.585026,0.05826 -2.962974,3.567282 -4.744308,8.157333 -4.744308,13.16882 0,5.011384 1.781334,9.601538 4.744308,13.168717 0.660821,0.795693 1.854667,0.790667 2.584923,0.05815 0.727282,-0.729436 0.717846,-1.903897 0.07528,-2.708923 -2.301436,-2.882974 -3.674256,-6.539487 -3.674256,-10.517846 0,-3.978461 1.372923,-7.635076 3.674359,-10.518153 z" fill="#ffffff" id="path1" style=""/>
  <path d="m 46.575999,55.747999 c -0.531487,0 -1.053744,-0.112206 -1.426872,-0.280718 -1.314872,-0.701539 -2.266154,-1.655487 -3.189436,-4.461744 -0.960513,-2.909025 -2.741743,-4.283897 -4.467077,-5.621538 -1.473435,-1.141231 -3.002871,-2.319898 -4.317846,-4.723795 -0.979179,-1.795795 -1.52,-3.750974 -1.52,-5.490564 0,-5.247487 4.093949,-9.353846 9.325744,-9.353846 4.596923,0 8.315589,3.170257 9.150256,7.499282 0.195077,1.011487 1.010667,1.854564 2.040718,1.854564 1.030154,0 1.878974,-0.839692 1.740102,-1.86041 -0.875282,-6.431179 -6.241128,-11.234974 -12.930974,-11.234974 -7.320717,0 -13.056204,5.752615 -13.056204,13.095384 0,2.366564 0.708717,4.957538 1.986358,7.295897 1.697334,3.096103 3.702359,4.639487 5.315693,5.892821 1.510769,1.169231 2.601948,2.011282 3.198769,3.825641 1.119077,3.395692 2.564513,5.312923 5.082564,6.641128 0.969846,0.439692 1.995692,0.664307 3.068205,0.664307 3.477641,0 6.408512,-2.40123 7.230666,-5.636717 0.253744,-0.998359 -0.605128,-1.846359 -1.635179,-1.846359 -1.030154,0 -1.826359,0.884615 -2.318462,1.789538 -0.63241,1.163282 -1.862461,1.952103 -3.277025,1.952103 z" fill="#ffffff" id="path2" style=""/>
  <path d="m 46.675486,35.218768 c -6.805538,0.804 -4.629333,10.425333 1.786974,9.525539" stroke="#ffffff" stroke-width="4.10256" stroke-linecap="round" id="path3"/>
  <defs id="defs3"/>
</svg>